<svg xmlns="http://www.w3.org/2000/svg" viewBox="0 0 256 256" width="256" height="256"><rect width="256" height="256" rx="56" fill="#062a30"/><circle cx="128" cy="128" r="90" fill="none" stroke="#e1d9c1" stroke-width="5"/><ellipse cx="128" cy="128" rx="30" ry="90" fill="none" stroke="#e1d9c1" stroke-opacity=".55" stroke-width="3"/><ellipse cx="128" cy="128" rx="62" ry="90" fill="none" stroke="#e1d9c1" stroke-opacity=".55" stroke-width="3"/><line x1="128" y1="38" x2="128" y2="218" stroke="#e1d9c1" stroke-opacity=".55" stroke-width="3"/><line x1="50.1" y1="83" x2="205.9" y2="83" stroke="#e1d9c1" stroke-opacity=".55" stroke-width="3"/><line x1="38.0" y1="128" x2="218.0" y2="128" stroke="#e1d9c1" stroke-opacity=".55" stroke-width="3"/><line x1="50.1" y1="173" x2="205.9" y2="173" stroke="#e1d9c1" stroke-opacity=".55" stroke-width="3"/><line x1="128" y1="128" x2="190" y2="83" stroke="#cca300" stroke-width="4"/><line x1="128" y1="128" x2="66" y2="83" stroke="#cca300" stroke-width="4"/><line x1="128" y1="128" x2="158" y2="173" stroke="#cca300" stroke-width="4"/><line x1="128" y1="128" x2="90" y2="173" stroke="#cca300" stroke-width="4"/><line x1="128" y1="128" x2="210" y2="128" stroke="#cca300" stroke-width="4"/><line x1="128" y1="128" x2="46" y2="128" stroke="#cca300" stroke-width="4"/><circle cx="128" cy="128" r="16" fill="#cca300" stroke="#062a30" stroke-width="3"/><circle cx="190" cy="83" r="11" fill="#ed4319" stroke="#062a30" stroke-width="3"/><circle cx="66" cy="83" r="9" fill="#8b8d92" stroke="#062a30" stroke-width="3"/><circle cx="158" cy="173" r="9" fill="#8b8d92" stroke="#062a30" stroke-width="3"/><circle cx="90" cy="173" r="9" fill="#cca300" stroke="#062a30" stroke-width="3"/><circle cx="210" cy="128" r="7" fill="#cca300" stroke="#062a30" stroke-width="3"/><circle cx="46" cy="128" r="7" fill="#8b8d92" stroke="#062a30" stroke-width="3"/></svg>